:SAMPLES-PER-SECOND 30
:FULLY-SPECIFIED
:DEGREES
336
root  -7.49379 38.8739 1.47223 -2.85484 -2.99751 -4.36182
RightUpLeg  -6.68221 0.19077 7.97901
RightLeg  19.7936 1.6234 -3.27586
RightFoot  -10.8646 0.0525957 -1.04568
RightToes  1.74624e-010 -3.18055e-015 -2.98177e-016
Spine  3.08152 -3.69382 3.13125
Spine1  6.95256 -5.86412 13.1996
HEad  -23.0728 15.8229 -3.99528
LeftShoulder1  -3.88251e-019 9.70628e-020 -3.87848e-018
LeftArm  10.9172 49.9942 -81.1858
LeftForeArm  -163.591 -73.2704 143.414
LeftHand  -3.5505 -8.73174 29.6376
RightShoulder  6.84201 10.1995 32.7263
RightArm  57.6907 -37.1331 12.7277
RightForeArm  -128.477 62.2874 -132.54
RightHand  -7.14883 9.36011 -52.1169
LeftUpLeg  -9.71423 10.4752 4.58092
LeftLeg  33.5786 8.40421 16.5251
LeftFoot  -9.8496 0.299379 -11.4711
LeftToes  7.37594e-011 2.64622e-011 -6.25182e-011
337
root  -7.24529 38.8634 1.43737 -2.39448 -4.99622 -4.13549
RightUpLeg  -7.54634 0.111793 7.4301
RightLeg  20.1547 3.69039 -2.76025
RightFoot  -10.7062 0.053657 -1.05351
RightToes  1.74624e-010 -3.18055e-015 -2.98177e-016
Spine  3.71189 -4.04057 2.52485
Spine1  6.4479 -6.38725 14.3449
HEad  -22.6988 17.2981 -3.5502
LeftShoulder1  -3.88251e-019 9.70628e-020 -3.87848e-018
LeftArm  15.099 49.7813 -80.6293
LeftForeArm  -160.281 -73.523 142.374
LeftHand  -3.60986 -9.13872 29.2802
RightShoulder  6.83753 10.2008 32.7
RightArm  61.9291 -35.9074 12.2743
RightForeArm  -126.458 62.0493 -132.902
RightHand  -7.47416 10.0996 -51.9304
LeftUpLeg  -10.2483 10.4911 5.27218
LeftLeg  35.5503 2.36652 13.2743
LeftFoot  -9.88923 0.296578 -11.5217
LeftToes  7.37594e-011 2.64622e-011 -6.25182e-011
338
root  -6.94209 38.8146 1.39851 -2.11487 -6.10738 -4.03503
RightUpLeg  -8.35895 -0.0163976 6.92508
RightLeg  20.7745 4.97504 -2.58502
RightFoot  -10.704 0.0469817 -0.750615
RightToes  1.74624e-010 -3.18055e-015 -2.98177e-016
Spine  4.39557 -4.63864 2.3774
Spine1  6.00145 -7.06135 15.2377
HEad  -22.0621 18.8178 -2.94496
LeftShoulder1  -3.88251e-019 9.70628e-020 -3.87848e-018
LeftArm  19.9005 48.6182 -80.0651
LeftForeArm  -157.345 -73.7816 141.322
LeftHand  -3.70031 -9.46827 29.3304
RightShoulder  6.85682 10.2278 32.743
RightArm  65.5527 -34.9894 12.4766
RightForeArm  -126.093 61.9541 -133.095
RightHand  -7.60731 10.7149 -50.984
LeftUpLeg  -10.81 9.52997 6.04296
LeftLeg  37.6319 -2.91401 9.8929
LeftFoot  -10.1782 0.288697 -12.3921
LeftToes  7.37594e-011 2.64622e-011 -6.25182e-011
339
root  -6.60289 38.7946 1.36125 -2.01299 -6.84529 -3.98159
RightUpLeg  -8.79766 -0.00249362 6.44999
RightLeg  20.9869 5.81231 -2.58143
RightFoot  -10.5063 0.0364826 -0.289131
RightToes  1.74624e-010 -3.18055e-015 -2.98177e-016
Spine  4.89799 -5.11242 2.46502
Spine1  5.94387 -7.58083 15.6479
HEad  -21.431 19.3962 -2.28599
LeftShoulder1  -3.88251e-019 9.70628e-020 -3.87848e-018
LeftArm  22.5479 47.3066 -79.6115
LeftForeArm  -157.235 -73.8255 141.194
LeftHand  -3.57353 -9.50456 28.297
RightShoulder  6.86903 10.2483 32.7625
RightArm  66.5373 -35.0197 12.4047
RightForeArm  -127.841 61.7875 -133.703
RightHand  -7.41623 10.9193 -49.307
LeftUpLeg  -10.9608 8.22143 6.79671
LeftLeg  38.7455 -5.66475 7.84396
LeftFoot  -10.9057 0.212042 -12.5761
LeftToes  7.37594e-011 2.64622e-011 -6.25182e-011
340
root  -6.24595 38.8218 1.33564 -1.95439 -7.69113 -3.90345
RightUpLeg  -8.94741 0.0956419 5.92834
RightLeg  20.6875 6.67263 -2.49622
RightFoot  -10.0434 0.0234342 0.16506
RightToes  1.74624e-010 -3.18055e-015 -2.98177e-016
Spine  5.02821 -5.27552 2.42868
Spine1  6.2615 -7.82411 15.6899
HEad  -21.0142 19.1955 -1.68024
LeftShoulder1  -3.88251e-019 9.70628e-020 -3.87848e-018
LeftArm  22.3778 46.5336 -79.3608
LeftForeArm  -158.848 -73.855 141.342
LeftHand  -3.20607 -9.29397 25.8736
RightShoulder  6.87346 10.2457 32.7914
RightArm  65.332 -35.6523 11.6579
RightForeArm  -130.429 61.4745 -134.733
RightHand  -6.83156 10.4038 -47.1487
LeftUpLeg  -10.5222 6.71641 7.36338
LeftLeg  38.2002 -4.00715 9.1223
LeftFoot  -12.0966 0.0687067 -11.4562
LeftToes  7.37594e-011 2.64622e-011 -6.25182e-011
341
root  -5.86759 38.8529 1.33246 -1.89794 -8.58488 -3.82822
RightUpLeg  -9.03583 0.0682973 5.33514
RightLeg  20.3256 7.64982 -2.27648
RightFoot  -9.56256 0.00749728 0.588365
RightToes  1.74624e-010 -3.18055e-015 -2.98177e-016
Spine  4.83574 -5.23296 2.0846
Spine1  6.70935 -7.95189 15.881
HEad  -20.7001 19.1421 -1.16996
LeftShoulder1  -3.88251e-019 9.70628e-020 -3.87848e-018
LeftArm  21.1721 46.1468 -79.5029
LeftForeArm  -159.636 -73.9277 141.263
LeftHand  -2.9147 -9.15801 23.8545
RightShoulder  6.89218 10.2391 32.9034
RightArm  63.7067 -35.9328 10.7655
RightForeArm  -133.001 61.078 -135.909
RightHand  -6.12779 9.87499 -44.1095
LeftUpLeg  -9.64937 4.89351 7.68249
LeftLeg  36.3161 1.54852 12.9725
LeftFoot  -13.3719 -0.0574846 -9.2213
LeftToes  7.37594e-011 2.64622e-011 -6.25182e-011
342
root  -5.46472 38.892 1.34868 -1.92088 -9.25928 -3.68187
RightUpLeg  -8.98371 -0.138581 4.59032
RightLeg  19.8866 8.5798 -2.02676
RightFoot  -9.06777 -0.0117678 0.997926
RightToes  1.74624e-010 -3.18055e-015 -2.98177e-016
Spine  4.5921 -5.0953 1.38147
Spine1  6.9279 -8.04714 16.2959
HEad  -20.1306 19.4344 -0.696897
LeftShoulder1  -3.88251e-019 9.70628e-020 -3.87848e-018
LeftArm  19.9225 45.8828 -80.2281
LeftForeArm  -158.428 -73.819 141.377
LeftHand  -3.04198 -9.48711 24.2816
RightShoulder  6.94231 10.2603 33.1192
RightArm  62.3804 -35.7828 10.1185
RightForeArm  -134.234 60.693 -136.875
RightHand  -5.88617 10.1087 -41.9563
LeftUpLeg  -8.44306 2.76518 7.68332
LeftLeg  33.2741 7.86726 15.9966
LeftFoot  -13.871 -0.0828041 -6.24624
LeftToes  7.37594e-011 2.64622e-011 -6.25182e-011
343
root  -5.03401 38.9586 1.36572 -2.04002 -9.67359 -3.42989
RightUpLeg  -8.73173 -0.435751 3.68245
RightLeg  19.1799 9.40734 -1.84829
RightFoot  -8.427 -0.0384762 1.44484
RightToes  1.74624e-010 -3.18055e-015 -2.98177e-016
Spine  4.46511 -4.90458 0.594252
Spine1  6.80366 -8.0098 16.3487
HEad  -19.2456 19.5633 -0.180148
LeftShoulder1  -3.88251e-019 9.70628e-020 -3.87848e-018
LeftArm  17.8196 45.9631 -81.3734
LeftForeArm  -156.852 -73.3847 142.252
LeftHand  -3.50975 -10.1184 26.7381
RightShoulder  7.00997 10.3065 33.371
RightArm  60.9187 -35.9954 9.55756
RightForeArm  -133.577 60.3115 -137.607
RightHand  -6.31263 10.7895 -42.9679
LeftUpLeg  -6.89875 0.515685 7.37031
LeftLeg  28.8994 11.9121 15.9269
LeftFoot  -12.932 -0.02883 -4.26949
LeftToes  7.37594e-011 2.64622e-011 -6.25182e-011
344
root  -4.5591 39.0171 1.37168 -2.21632 -9.91975 -3.20191
RightUpLeg  -8.46829 -0.83132 2.73529
RightLeg  18.5014 10.2174 -1.76517
RightFoot  -7.76622 -0.0785205 2.05934
RightToes  1.74624e-010 -3.18055e-015 -2.98177e-016
Spine  4.28776 -4.73209 0.0189477
Spine1  6.7474 -7.86518 15.7565
HEad  -18.4634 19.4692 0.334966
LeftShoulder1  -3.88251e-019 9.70628e-020 -3.87848e-018
LeftArm  15.0496 46.3378 -82.5658
LeftForeArm  -156.99 -72.8246 143.585
LeftHand  -3.91078 -10.5443 28.8781
RightShoulder  7.04837 10.3348 33.5087
RightArm  59.5999 -36.6549 9.30836
RightForeArm  -132.712 59.9803 -138.193
RightHand  -6.93495 10.9442 -46.4068
LeftUpLeg  -5.29719 -1.26837 6.88017
LeftLeg  24.4093 13.1439 13.9415
LeftFoot  -10.8365 0.0772281 -5.13303
LeftToes  7.37594e-011 2.64622e-011 -6.25182e-011
345
root  -4.03455 39.0519 1.36694 -2.541 -9.99924 -2.90738
RightUpLeg  -8.20363 -1.40427 1.65543
RightLeg  18.0513 11.0693 -1.7719
RightFoot  -7.20248 -0.134548 2.89153
RightToes  1.74624e-010 -3.18055e-015 -2.98177e-016
Spine  3.89984 -4.58464 -0.80068
Spine1  7.18949 -7.78638 15.0644
HEad  -18.1431 19.5346 0.676927
LeftShoulder1  -3.88251e-019 9.70628e-020 -3.87848e-018
LeftArm  13.9135 46.1919 -83.514
LeftForeArm  -157.647 -72.6065 144.158
LeftHand  -4.06407 -10.6549 29.7416
RightShoulder  7.03541 10.3214 33.4706
RightArm  59.4106 -36.7225 10.1494
RightForeArm  -133.115 59.9142 -138.366
RightHand  -7.11224 10.7251 -48.0268
LeftUpLeg  -4.01544 -1.35415 6.17279
LeftLeg  21.6016 12.4757 12.126
LeftFoot  -9.21908 0.230794 -7.63655
LeftToes  7.37594e-011 2.64622e-011 -6.25182e-011
